<svg xmlns="http://www.w3.org/2000/svg" width="192.852" height="182.843" viewBox="0 0 192.852 182.843">
  <g id="classical-music" transform="translate(-197.595 -292.599)">
    <g id="Group_6914" data-name="Group 6914">
      <g id="Group_6909" data-name="Group 6909">
        <g id="Group_6908" data-name="Group 6908">
          <path id="Path_44662" data-name="Path 44662" d="M297.9,374.48c-3.348-1.257-5.3-4.539-5.718-7.957a8.459,8.459,0,0,1,7.7-9.751c3.206-.369,6.95,1.561,9.22,3.906a13.17,13.17,0,0,1,1.328,15.962c-3.7,5.723-11.54,6.441-17.371,3.946-5.3-2.268-8.548-7.583-9.678-13.042-2.655-12.829,11.331-22.294,18.681-30.566a38.651,38.651,0,0,0,9.062-17.577c.68-3.307,1.2-8.693-1.561-11.28-2.915-2.734-7.983-.263-10.5,1.749-4.341,3.469-5.923,9.23-6.213,14.531-.69,12.625,1.6,25.538,3.392,37.991.939,6.522,2.089,12.988,3.24,19.475,1.048,5.9,2.54,12.612,1.011,18.547-.936,3.635-5.714,6.758-8.992,3.869-2.507-2.209-.086-10.021,3.4-7.218,1.306,1.05,5.721-.822,4.434-1.856-3.2-2.573-8.119-1.321-11.041,1.067-3.411,2.789-3.758,8.582.206,10.883,4.04,2.347,9.774.292,13.194-2.178,4.206-3.039,4.317-8.4,4.066-13.092-.372-6.94-2-13.81-3.2-20.636-1.086-6.139-1.886-12.341-2.719-18.518-.906-6.717-1.7-13.456-2.1-20.224-.354-5.933-.73-12.5,2.061-17.946a10.248,10.248,0,0,1,4.6-4.874c1.04-.441,1.9,2.306,2.087,3.089,1.252,5.251-.847,11.276-3.2,15.9-6.078,11.933-20.309,18.767-24.4,31.828-3.214,10.275,4.243,21.24,14.237,23.641,10.222,2.456,24.588-3.6,24.209-15.655-.34-10.8-11.015-16.527-20.652-13.505-5.732,1.8-9.308,5.979-9.315,12.083a10.783,10.783,0,0,0,6.731,9.7,4.057,4.057,0,0,0,3.377-.453c.566-.342,1.52-1.425.425-1.837Z" fill="#fff" stroke="#fff" stroke-width="1"/>
        </g>
      </g>
      <g id="Group_6913" data-name="Group 6913">
        <g id="Group_6910" data-name="Group 6910">
          <path id="Path_44663" data-name="Path 44663" d="M340.133,357.79c-.125,18.9-5.414,38.971-19.052,52.715-12.2,12.293-29.633,13.381-43.215,2.748-14.7-11.509-20.953-31.67-22.266-49.57-1.428-19.508,3.369-40.894,16.244-56.038,5.73-6.741,13.484-11.812,22.36-12.961,8.558-1.107,16.822,2.224,23.464,7.424,16.3,12.764,22.334,35.909,22.465,55.682.007,1.077,2.261.661,2.256-.22-.12-18.034-4.872-36.688-16.748-50.658-9.067-10.667-22.711-16.415-36.513-12.621-14.88,4.091-24.846,18.089-30.245,31.732-7.1,17.942-7.476,38.654-2.233,57.115,6.14,21.617,24.73,44.812,49.755,37.932,25.98-7.143,35.826-39.812,35.984-63.5C342.395,356.5,340.139,356.907,340.133,357.79Z" fill="#fff" stroke="#fff" stroke-width="1"/>
        </g>
        <g id="Group_6911" data-name="Group 6911">
          <path id="Path_44664" data-name="Path 44664" d="M338.031,370.893c-5.962,17.937-17.2,35.388-34.413,44.243-15.4,7.918-32.318,3.565-41.948-10.746-10.422-15.488-10.137-36.6-5.852-54.025,4.672-18.995,15.845-37.85,32.771-48.272,7.534-4.64,16.476-7.065,25.271-5.413,8.482,1.592,15.312,7.314,20.02,14.313,11.559,17.178,10.139,41.055,4.151,59.9-.325,1.026,1.947,1.327,2.214.488,5.461-17.188,6.709-36.4-.267-53.355-5.325-12.947-16.524-22.632-30.824-23.29-15.414-.709-29.221,9.522-38.573,20.828-12.3,14.868-19.058,34.449-19.778,53.627-.844,22.455,9.665,50.261,35.591,51.456,26.915,1.238,46.379-26.788,53.851-49.266C340.584,370.361,338.31,370.055,338.031,370.893Z" fill="#fff" stroke="#fff" stroke-width="1"/>
        </g>
        <g id="Group_6912" data-name="Group 6912">
          <path id="Path_44665" data-name="Path 44665" d="M337.931,344.225c5.927,17.949,7.336,38.654-1.188,56.037-7.624,15.55-23.8,22.159-40.065,16.43-17.608-6.2-29.984-23.3-36.953-39.843-7.594-18.026-9.89-39.822-2.538-58.29,3.274-8.219,9-15.5,17.04-19.431,7.754-3.787,16.65-3.276,24.606-.473,19.53,6.877,32.647,26.878,39.1,45.57.35,1.017,2.354-.1,2.066-.931-5.883-17.048-16.352-33.2-32.072-42.639-12-7.2-26.769-8.287-38.632-.276-12.789,8.635-17.755,25.086-18.506,39.739-.987,19.27,5.283,39.013,16.156,54.828,12.733,18.516,37.765,34.546,59.276,20.022,22.329-15.079,21.207-49.181,13.778-71.674C339.66,342.273,337.654,343.385,337.931,344.225Z" fill="#fff" stroke="#fff" stroke-width="1"/>
        </g>
      </g>
    </g>
    <g id="Group_6919" data-name="Group 6919">
      <g id="Group_6915" data-name="Group 6915">
        <path id="Path_44666" data-name="Path 44666" d="M227.109,453.824A24.53,24.53,0,0,1,217,455.641c-10.788,0-18.907-6.813-18.907-19.362,0-11.979,8.119-20.1,19.986-20.1,4.77,0,7.779,1.022,9.085,1.7l-1.193,4.031a17.981,17.981,0,0,0-7.722-1.59c-8.97,0-14.932,5.735-14.932,15.784,0,9.369,5.394,15.387,14.705,15.387a19.759,19.759,0,0,0,8.063-1.59Z" fill="#fff" stroke="#fff" stroke-width="1"/>
        <path id="Path_44667" data-name="Path 44667" d="M233.127,414.761h5v40.312h-5Z" fill="#fff" stroke="#fff" stroke-width="1"/>
        <path id="Path_44668" data-name="Path 44668" d="M261.743,455.073l-.4-3.464h-.17a10.234,10.234,0,0,1-8.4,4.089c-5.563,0-8.4-3.918-8.4-7.892,0-6.643,5.9-10.277,16.522-10.22v-.568c0-2.271-.624-6.359-6.245-6.359a13.7,13.7,0,0,0-7.155,2.044l-1.135-3.294a17.064,17.064,0,0,1,9.027-2.441c8.4,0,10.448,5.735,10.448,11.242v10.277a38.657,38.657,0,0,0,.454,6.586ZM261,441.049c-5.45-.113-11.639.851-11.639,6.189a4.421,4.421,0,0,0,4.713,4.769,6.837,6.837,0,0,0,6.643-4.6,5.225,5.225,0,0,0,.283-1.59Z" fill="#fff" stroke="#fff" stroke-width="1"/>
        <path id="Path_44669" data-name="Path 44669" d="M273.212,449.963a13.086,13.086,0,0,0,6.586,1.987c3.634,0,5.337-1.816,5.337-4.088,0-2.384-1.419-3.69-5.11-5.052-4.94-1.761-7.267-4.486-7.267-7.78,0-4.428,3.577-8.062,9.482-8.062a13.708,13.708,0,0,1,6.756,1.7l-1.249,3.634a10.689,10.689,0,0,0-5.621-1.59c-2.952,0-4.6,1.7-4.6,3.747,0,2.271,1.647,3.293,5.223,4.655,4.77,1.818,7.211,4.2,7.211,8.29,0,4.826-3.747,8.233-10.276,8.233a15.678,15.678,0,0,1-7.722-1.873Z" fill="#fff" stroke="#fff" stroke-width="1"/>
        <path id="Path_44670" data-name="Path 44670" d="M295.7,449.963a13.086,13.086,0,0,0,6.586,1.987c3.634,0,5.337-1.816,5.337-4.088,0-2.384-1.419-3.69-5.11-5.052-4.94-1.761-7.267-4.486-7.267-7.78,0-4.428,3.577-8.062,9.482-8.062a13.708,13.708,0,0,1,6.756,1.7l-1.249,3.634a10.689,10.689,0,0,0-5.621-1.59c-2.952,0-4.6,1.7-4.6,3.747,0,2.271,1.647,3.293,5.223,4.655,4.77,1.818,7.211,4.2,7.211,8.29,0,4.826-3.747,8.233-10.277,8.233a15.674,15.674,0,0,1-7.721-1.873Z" fill="#fff" stroke="#fff" stroke-width="1"/>
        <path id="Path_44671" data-name="Path 44671" d="M324.425,419.871a3.095,3.095,0,0,1-6.189,0,3.044,3.044,0,0,1,3.123-3.123A2.965,2.965,0,0,1,324.425,419.871Zm-5.564,35.2v-27.48h5v27.48Z" fill="#fff" stroke="#fff" stroke-width="1"/>
        <path id="Path_44672" data-name="Path 44672" d="M351.736,454.051a18.412,18.412,0,0,1-7.893,1.59c-8.289,0-13.683-5.621-13.683-14.024,0-8.46,5.791-14.592,14.762-14.592a16.708,16.708,0,0,1,6.927,1.419l-1.136,3.862A11.576,11.576,0,0,0,344.922,431c-6.3,0-9.709,4.656-9.709,10.391,0,6.359,4.088,10.277,9.539,10.277a14.189,14.189,0,0,0,6.132-1.363Z" fill="#fff" stroke="#fff" stroke-width="1"/>
        <path id="Path_44673" data-name="Path 44673" d="M372.8,455.073l-.4-3.464h-.171a10.23,10.23,0,0,1-8.4,4.089c-5.564,0-8.4-3.918-8.4-7.892,0-6.643,5.9-10.277,16.523-10.22v-.568c0-2.271-.625-6.359-6.246-6.359a13.692,13.692,0,0,0-7.154,2.044l-1.135-3.294a17.064,17.064,0,0,1,9.027-2.441c8.4,0,10.447,5.735,10.447,11.242v10.277a38.76,38.76,0,0,0,.454,6.586Zm-.738-14.024c-5.451-.113-11.639.851-11.639,6.189a4.42,4.42,0,0,0,4.712,4.769,6.837,6.837,0,0,0,6.643-4.6,5.2,5.2,0,0,0,.284-1.59Z" fill="#fff" stroke="#fff" stroke-width="1"/>
        <path id="Path_44674" data-name="Path 44674" d="M384.951,414.761h5v40.312h-5Z" fill="#fff" stroke="#fff" stroke-width="1"/>
      </g>
      <g id="Group_6918" data-name="Group 6918">
        <g id="Group_6916" data-name="Group 6916">
          <path id="Path_44675" data-name="Path 44675" d="M265.505,464.812c0-1.393-.027-2.534-.111-3.647h2.143l.111,2.171h.084a4.643,4.643,0,0,1,4.23-2.478,3.982,3.982,0,0,1,3.813,2.7h.056a5.549,5.549,0,0,1,1.5-1.753,4.588,4.588,0,0,1,2.978-.948c1.781,0,4.425,1.17,4.425,5.846v7.932h-2.393V467.01c0-2.589-.947-4.148-2.923-4.148a3.172,3.172,0,0,0-2.894,2.227,4.04,4.04,0,0,0-.2,1.224v8.323h-2.394v-8.072c0-2.143-.946-3.7-2.811-3.7a3.652,3.652,0,0,0-3.228,3.647v8.127h-2.394Z" fill="#fff" stroke="#fff" stroke-width="1"/>
          <path id="Path_44676" data-name="Path 44676" d="M299.983,470.962c0,1.392.028,2.616.112,3.674h-2.171l-.139-2.2h-.056a5.07,5.07,0,0,1-4.453,2.5c-2.115,0-4.648-1.17-4.648-5.9v-7.877h2.449v7.459c0,2.561.779,4.286,3.006,4.286a3.543,3.543,0,0,0,3.229-2.226,3.6,3.6,0,0,0,.222-1.253v-8.266h2.449Z" fill="#fff" stroke="#fff" stroke-width="1"/>
          <path id="Path_44677" data-name="Path 44677" d="M303.708,472.131a6.422,6.422,0,0,0,3.229.973c1.781,0,2.616-.89,2.616-2,0-1.168-.7-1.809-2.505-2.477-2.421-.863-3.562-2.2-3.562-3.812,0-2.172,1.753-3.954,4.648-3.954a6.727,6.727,0,0,1,3.312.836l-.613,1.782a5.236,5.236,0,0,0-2.755-.78c-1.447,0-2.254.834-2.254,1.836,0,1.114.807,1.615,2.56,2.283,2.338.891,3.535,2.059,3.535,4.063,0,2.366-1.837,4.036-5.038,4.036a7.677,7.677,0,0,1-3.785-.919Z" fill="#fff" stroke="#fff" stroke-width="1"/>
          <path id="Path_44678" data-name="Path 44678" d="M317.789,457.38a1.517,1.517,0,0,1-3.034,0,1.492,1.492,0,0,1,1.531-1.531A1.454,1.454,0,0,1,317.789,457.38Zm-2.728,17.256V461.165h2.449v13.471Z" fill="#fff" stroke="#fff" stroke-width="1"/>
          <path id="Path_44679" data-name="Path 44679" d="M331.174,474.135a9.024,9.024,0,0,1-3.869.779c-4.063,0-6.707-2.755-6.707-6.874a6.845,6.845,0,0,1,7.236-7.153,8.181,8.181,0,0,1,3.395.7l-.556,1.893a5.68,5.68,0,0,0-2.839-.641c-3.089,0-4.759,2.282-4.759,5.094,0,3.117,2,5.037,4.675,5.037a6.956,6.956,0,0,0,3.006-.668Z" fill="#fff" stroke="#fff" stroke-width="1"/>
        </g>
        <g id="Group_6917" data-name="Group 6917">
          <line id="Line_1" data-name="Line 1" x1="40.706" transform="translate(218.002 468.494)" fill="none" stroke="#fff" stroke-miterlimit="10" stroke-width="0.5"/>
          <line id="Line_2" data-name="Line 2" x1="40.706" transform="translate(336.772 468.494)" fill="none" stroke="#fff" stroke-miterlimit="10" stroke-width="0.5"/>
        </g>
      </g>
    </g>
  </g>
</svg>
