<svg xmlns="http://www.w3.org/2000/svg" width="194.459" height="116.51" viewBox="0 0 194.459 116.51">
  <g id="latin-music" transform="translate(-539.713 -560.24)">
    <g id="Group_6942" data-name="Group 6942">
      <g id="Group_6940" data-name="Group 6940">
        <path id="Path_44714" data-name="Path 44714" d="M692.693,582a16.835,16.835,0,0,0-24.662-19.623c-10.664,5.459-12.566,16.089-12.926,23.9s-1.841,15.851-8.179,22.052-31.035,30.179-23.868,35.882,24.985-23.749,29.6-31.319,12.121-10.819,19.65-12.926S689.771,593.615,692.693,582Z" fill="#fff"/>
        <path id="Path_44715" data-name="Path 44715" d="M693.135,579.673a16.589,16.589,0,0,0-22.905-18.264A144.4,144.4,0,0,0,693.135,579.673Z" fill="#fff"/>
        <path id="Path_44716" data-name="Path 44716" d="M688.578,590.406A21.747,21.747,0,0,0,692.693,582a20.042,20.042,0,0,0,.5-2.84,185.78,185.78,0,0,1-22.308-17.983,20.229,20.229,0,0,0-2.856,1.2,21.71,21.71,0,0,0-7.426,6.1C670.465,578.671,682.08,586.44,688.578,590.406Z" fill="#14c285"/>
        <path id="Path_44717" data-name="Path 44717" d="M660.922,568.068c-3.571,4.4-4.973,9.736-5.528,14.549a112.72,112.72,0,0,0,20.034,16.375c4.672-1.615,9.732-4.2,13.314-8.788C671.891,579.667,664.109,571.868,660.922,568.068Z" fill="#272727"/>
      </g>
      <g id="Group_6941" data-name="Group 6941">
        <path id="Path_44718" data-name="Path 44718" d="M598.271,582a16.836,16.836,0,0,1,24.664-19.623c10.663,5.459,12.565,16.089,12.924,23.9s1.842,15.851,8.18,22.052,31.037,30.179,23.867,35.882-24.984-23.749-29.6-31.319-12.122-10.819-19.651-12.926S601.193,593.615,598.271,582Z" fill="#fff"/>
        <path id="Path_44719" data-name="Path 44719" d="M597.83,579.673a16.588,16.588,0,0,1,22.9-18.264A144.312,144.312,0,0,1,597.83,579.673Z" fill="#fff"/>
        <path id="Path_44720" data-name="Path 44720" d="M602.387,590.406A21.733,21.733,0,0,1,598.271,582a20.477,20.477,0,0,1-.5-2.84,185.723,185.723,0,0,0,22.309-17.983,20.287,20.287,0,0,1,2.857,1.2,21.729,21.729,0,0,1,7.426,6.1C620.5,578.671,608.885,586.44,602.387,590.406Z" fill="#14c285"/>
        <path id="Path_44721" data-name="Path 44721" d="M630.043,568.068c3.57,4.4,4.973,9.736,5.527,14.549a112.54,112.54,0,0,1-20.035,16.375c-4.67-1.615-9.73-4.2-13.312-8.788C619.074,579.667,626.855,571.868,630.043,568.068Z" fill="#272727"/>
      </g>
    </g>
    <g id="Group_6945" data-name="Group 6945">
      <g id="Group_6943" data-name="Group 6943">
        <path id="Path_44722" data-name="Path 44722" d="M539.713,642.994h4.252v29.374H558.04v3.568H539.713Z" fill="#fff"/>
        <path id="Path_44723" data-name="Path 44723" d="M575.735,675.936l-.341-2.982h-.147a8.809,8.809,0,0,1-7.233,3.52c-4.79,0-7.234-3.373-7.234-6.794,0-5.718,5.083-8.846,14.222-8.8v-.489c0-1.956-.537-5.474-5.376-5.474a11.78,11.78,0,0,0-6.158,1.76l-.978-2.835a14.681,14.681,0,0,1,7.772-2.1c7.233,0,8.992,4.937,8.992,9.677v8.847a33.231,33.231,0,0,0,.392,5.669Zm-.635-12.073c-4.692-.1-10.019.734-10.019,5.328a3.806,3.806,0,0,0,4.057,4.105,5.883,5.883,0,0,0,5.717-3.958,4.486,4.486,0,0,0,.245-1.369Z" fill="#fff"/>
        <path id="Path_44724" data-name="Path 44724" d="M591.182,645.487v6.793h6.158v3.275h-6.158v12.757c0,2.931.831,4.593,3.225,4.593a9.555,9.555,0,0,0,2.493-.293l.2,3.226a10.538,10.538,0,0,1-3.813.586,5.957,5.957,0,0,1-4.642-1.808c-1.222-1.27-1.662-3.373-1.662-6.158v-12.9h-3.666V652.28h3.666v-5.669Z" fill="#fff"/>
        <path id="Path_44725" data-name="Path 44725" d="M606.971,645.634a2.664,2.664,0,0,1-5.327,0,2.621,2.621,0,0,1,2.687-2.689A2.554,2.554,0,0,1,606.971,645.634Zm-4.79,30.3V652.28h4.3v23.656Z" fill="#fff"/>
        <path id="Path_44726" data-name="Path 44726" d="M613.618,658.683c0-2.444-.049-4.448-.2-6.4h3.812l.244,3.91h.1a8.7,8.7,0,0,1,7.82-4.447c3.275,0,8.358,1.955,8.358,10.068v14.125h-4.3V662.3c0-3.813-1.418-6.989-5.475-6.989a6.11,6.11,0,0,0-5.766,4.4,6.2,6.2,0,0,0-.293,2v14.223h-4.3Z" fill="#fff"/>
      </g>
      <g id="Group_6944" data-name="Group 6944">
        <path id="Path_44727" data-name="Path 44727" d="M648.035,663.476c0-1.825-.036-3.32-.145-4.778H650.7l.147,2.844h.109A6.082,6.082,0,0,1,656.5,658.3a5.217,5.217,0,0,1,5,3.537h.073a7.279,7.279,0,0,1,1.969-2.3,6.022,6.022,0,0,1,3.9-1.24c2.334,0,5.8,1.531,5.8,7.658v10.394H670.1v-9.993c0-3.391-1.241-5.433-3.829-5.433a4.152,4.152,0,0,0-3.793,2.917,5.276,5.276,0,0,0-.255,1.6v10.905h-3.137V665.772c0-2.807-1.239-4.849-3.683-4.849a4.782,4.782,0,0,0-4.23,4.777v10.649h-3.137Z" fill="#fff"/>
        <path id="Path_44728" data-name="Path 44728" d="M693.219,671.535c0,1.823.037,3.428.146,4.814h-2.844l-.183-2.881h-.073a6.641,6.641,0,0,1-5.835,3.282c-2.772,0-6.09-1.532-6.09-7.731V658.7h3.209v9.774c0,3.354,1.021,5.616,3.938,5.616a4.638,4.638,0,0,0,4.231-2.918,4.7,4.7,0,0,0,.292-1.641V658.7h3.209Z" fill="#fff"/>
        <path id="Path_44729" data-name="Path 44729" d="M698.1,673.066a8.4,8.4,0,0,0,4.231,1.277c2.334,0,3.428-1.167,3.428-2.626,0-1.531-.911-2.37-3.283-3.245-3.172-1.131-4.668-2.881-4.668-5,0-2.845,2.3-5.179,6.091-5.179a8.82,8.82,0,0,1,4.34,1.094l-.8,2.334a6.865,6.865,0,0,0-3.61-1.021c-1.9,0-2.954,1.094-2.954,2.406,0,1.459,1.058,2.116,3.355,2.991,3.064,1.167,4.631,2.7,4.631,5.325,0,3.1-2.406,5.287-6.6,5.287a10.071,10.071,0,0,1-4.96-1.2Z" fill="#fff"/>
        <path id="Path_44730" data-name="Path 44730" d="M716.558,653.738a1.988,1.988,0,0,1-3.976,0,1.956,1.956,0,0,1,2.006-2.006A1.905,1.905,0,0,1,716.558,653.738Zm-3.575,22.611V658.7h3.209v17.651Z" fill="#fff"/>
        <path id="Path_44731" data-name="Path 44731" d="M734.1,675.692a11.823,11.823,0,0,1-5.07,1.021c-5.324,0-8.789-3.61-8.789-9.007,0-5.435,3.72-9.373,9.482-9.373a10.736,10.736,0,0,1,4.449.912l-.729,2.48a7.438,7.438,0,0,0-3.72-.839c-4.048,0-6.236,2.99-6.236,6.674,0,4.085,2.625,6.6,6.126,6.6a9.11,9.11,0,0,0,3.94-.875Z" fill="#fff"/>
      </g>
    </g>
  </g>
</svg>
