<svg xmlns="http://www.w3.org/2000/svg" width="176.693" height="195.18" viewBox="0 0 176.693 195.18">
  <g id="relax-music" transform="translate(-557.865 -287.645)">
    <g id="Group_6928" data-name="Group 6928">
      <g id="Group_6921" data-name="Group 6921">
        <path id="Path_44680" data-name="Path 44680" d="M646.814,441.8l-50.9-50.9q-12.2-12.2-24.4-24.4l-1.553-1.551c.549.547-.481,1.264,1.006-.224l8.8-8.8,66.911-66.912-2.53.248,50.9,50.9q12.2,12.2,24.4,24.4L721,366.113c-.547-.548.482-1.264-1.006.223q-4.4,4.4-8.8,8.8-33.454,33.456-66.91,66.91c-1.266,1.266,1.557,1.576,2.4.738L723.564,365.9c.231-.233.412-.708.135-.986l-76.885-76.885a1.906,1.906,0,0,0-2.529.247q-38.44,38.443-76.885,76.886c-.232.232-.414.707-.134.985q38.439,38.443,76.884,76.885C645.012,443.894,647.762,442.745,646.814,441.8Z" fill="#fff"/>
      </g>
      <g id="Group_6927" data-name="Group 6927">
        <g id="Group_6922" data-name="Group 6922">
          <rect id="Rectangle_235" data-name="Rectangle 235" width="9.644" height="51.57" transform="translate(629.1 324.164)" fill="#fff"/>
          <rect id="Rectangle_236" data-name="Rectangle 236" width="9.641" height="51.57" transform="translate(651.213 324.164)" fill="#fff"/>
        </g>
        <g id="Group_6926" data-name="Group 6926">
          <g id="Group_6923" data-name="Group 6923">
            <path id="Path_44681" data-name="Path 44681" d="M634.588,407.4H617.146V323.664h9.073V377.77h8.369Zm-16.442-1h15.442V378.77h-8.369V324.664h-7.073Z" fill="#fff"/>
          </g>
          <g id="Group_6924" data-name="Group 6924">
            <path id="Path_44682" data-name="Path 44682" d="M654.215,407.4h-17.44V377.77h5.006V323.664h6.4V377.77h6.039Zm-16.44-1h15.44V378.77h-6.039V324.664h-4.4V378.77h-5.006Z" fill="#fff"/>
          </g>
          <g id="Group_6925" data-name="Group 6925">
            <path id="Path_44683" data-name="Path 44683" d="M673.816,407.4H656.377V377.77h7.357V323.664h10.082Zm-16.439-1h15.439V324.664h-8.082V378.77h-7.357Z" fill="#fff"/>
          </g>
        </g>
      </g>
    </g>
    <g id="Group_6929" data-name="Group 6929">
      <path id="Path_44684" data-name="Path 44684" d="M557.865,460.4a30.1,30.1,0,0,1,5.539-.464c3.086,0,5.076.564,6.469,1.824a5.57,5.57,0,0,1,1.759,4.246,5.872,5.872,0,0,1-4.213,5.706v.1c1.725.6,2.753,2.189,3.284,4.511a35.543,35.543,0,0,0,1.725,6.137h-2.986a29.024,29.024,0,0,1-1.493-5.341c-.663-3.085-1.857-4.246-4.478-4.346h-2.72v9.687h-2.886Zm2.886,10.184H563.7c3.085,0,5.042-1.691,5.042-4.246,0-2.886-2.09-4.147-5.141-4.18a11.846,11.846,0,0,0-2.853.266Z" fill="#fff"/>
      <path id="Path_44685" data-name="Path 44685" d="M587.291,471.978H578.6v8.06h9.686v2.422H575.714V460.1h12.074v2.421H578.6v7.066h8.691Z" fill="#fff"/>
      <path id="Path_44686" data-name="Path 44686" d="M592.036,460.1h2.886v19.936h9.554v2.422h-12.44Z" fill="#fff"/>
      <path id="Path_44687" data-name="Path 44687" d="M611.31,475.428l-2.323,7.032H606l7.6-22.358h3.483l7.63,22.358h-3.085l-2.389-7.032Zm7.331-2.256-2.19-6.436c-.5-1.46-.829-2.787-1.161-4.08h-.065c-.332,1.326-.7,2.687-1.128,4.047l-2.19,6.469Z" fill="#fff"/>
      <path id="Path_44688" data-name="Path 44688" d="M639.774,482.46l-2.852-4.942c-1.161-1.892-1.891-3.119-2.588-4.413h-.066c-.63,1.294-1.261,2.488-2.421,4.446l-2.688,4.909h-3.317l6.834-11.312L626.107,460.1h3.351l2.952,5.241c.829,1.46,1.46,2.588,2.057,3.782h.1c.63-1.327,1.2-2.355,2.024-3.782l3.052-5.241h3.317l-6.8,10.88,6.967,11.478Z" fill="#fff"/>
      <path id="Path_44689" data-name="Path 44689" d="M665.319,472.641c-.166-3.119-.365-6.867-.332-9.654h-.1c-.763,2.621-1.692,5.408-2.82,8.492l-3.947,10.848h-2.189l-3.617-10.648c-1.061-3.152-1.957-6.037-2.586-8.692h-.067c-.066,2.787-.232,6.535-.432,9.886l-.6,9.587H645.88l1.559-22.358h3.682l3.816,10.814c.928,2.753,1.691,5.208,2.255,7.53h.1c.564-2.256,1.36-4.711,2.355-7.53l3.981-10.814h3.683L668.7,482.46h-2.82Z" fill="#fff"/>
      <path id="Path_44690" data-name="Path 44690" d="M676.036,460.1v13.236c0,5.009,2.223,7.132,5.208,7.132,3.318,0,5.441-2.19,5.441-7.132V460.1H689.6v13.037c0,6.866-3.616,9.686-8.459,9.686-4.579,0-8.028-2.621-8.028-9.554V460.1Z" fill="#fff"/>
      <path id="Path_44691" data-name="Path 44691" d="M694.217,478.943a10.218,10.218,0,0,0,5.175,1.46c2.952,0,4.677-1.559,4.677-3.814,0-2.091-1.194-3.284-4.213-4.445-3.649-1.294-5.905-3.185-5.905-6.336,0-3.484,2.887-6.072,7.232-6.072a10.17,10.17,0,0,1,4.943,1.1l-.8,2.356a8.907,8.907,0,0,0-4.246-1.062c-3.053,0-4.213,1.824-4.213,3.351,0,2.089,1.359,3.118,4.444,4.312,3.783,1.46,5.706,3.284,5.706,6.568,0,3.451-2.554,6.436-7.829,6.436a11.556,11.556,0,0,1-5.705-1.427Z" fill="#fff"/>
      <path id="Path_44692" data-name="Path 44692" d="M713.856,460.1V482.46h-2.885V460.1Z" fill="#fff"/>
      <path id="Path_44693" data-name="Path 44693" d="M734.524,481.73a14.317,14.317,0,0,1-5.9,1.062c-6.3,0-11.046-3.981-11.046-11.313,0-7,4.743-11.743,11.677-11.743a12.006,12.006,0,0,1,5.308.995l-.7,2.356a10.521,10.521,0,0,0-4.511-.929c-5.242,0-8.725,3.351-8.725,9.222,0,5.474,3.151,8.99,8.592,8.99a11.545,11.545,0,0,0,4.71-.929Z" fill="#fff"/>
    </g>
  </g>
</svg>
