<svg xmlns="http://www.w3.org/2000/svg" width="176.931" height="137.832" viewBox="0 0 176.931 137.832">
  <g id="electronic-music" transform="translate(-557.77 -92.294)">
    <g id="Group_6903" data-name="Group 6903">
      <g id="Group_6902" data-name="Group 6902">
        <g id="Group_6896" data-name="Group 6896">
          <rect id="Rectangle_223" data-name="Rectangle 223" width="2.324" height="60.843" transform="translate(608.104 92.294)" fill="#fff"/>
          <rect id="Rectangle_224" data-name="Rectangle 224" width="9.053" height="16.296" transform="translate(604.742 114.57)" fill="#fff"/>
        </g>
        <g id="Group_6897" data-name="Group 6897">
          <rect id="Rectangle_225" data-name="Rectangle 225" width="2.326" height="60.843" transform="translate(622.588 92.294)" fill="#fff"/>
          <rect id="Rectangle_226" data-name="Rectangle 226" width="9.053" height="16.296" transform="translate(619.227 120.365)" fill="#fff"/>
        </g>
        <g id="Group_6898" data-name="Group 6898">
          <rect id="Rectangle_227" data-name="Rectangle 227" width="2.328" height="60.843" transform="translate(637.072 92.294)" fill="#fff"/>
          <rect id="Rectangle_228" data-name="Rectangle 228" width="9.053" height="16.296" transform="translate(633.713 105.879)" fill="#fff"/>
        </g>
        <g id="Group_6899" data-name="Group 6899">
          <rect id="Rectangle_229" data-name="Rectangle 229" width="2.324" height="60.843" transform="translate(651.56 92.294)" fill="#fff"/>
          <rect id="Rectangle_230" data-name="Rectangle 230" width="9.055" height="16.296" transform="translate(648.197 117.467)" fill="#fff"/>
        </g>
        <g id="Group_6900" data-name="Group 6900">
          <rect id="Rectangle_231" data-name="Rectangle 231" width="2.326" height="60.843" transform="translate(666.043 92.294)" fill="#fff"/>
          <rect id="Rectangle_232" data-name="Rectangle 232" width="9.051" height="16.295" transform="translate(662.683 111.673)" fill="#fff"/>
        </g>
        <g id="Group_6901" data-name="Group 6901">
          <rect id="Rectangle_233" data-name="Rectangle 233" width="2.324" height="60.843" transform="translate(680.529 92.294)" fill="#fff"/>
          <rect id="Rectangle_234" data-name="Rectangle 234" width="9.053" height="16.296" transform="translate(677.168 114.57)" fill="#fff"/>
        </g>
      </g>
    </g>
    <g id="Group_6906" data-name="Group 6906">
      <g id="Group_6904" data-name="Group 6904">
        <path id="Path_44647" data-name="Path 44647" d="M569.735,180.1h-8.982v8.332h10.012v2.5H557.77V167.831h12.48v2.5h-9.5v7.3h8.982Z" fill="#fff"/>
        <path id="Path_44648" data-name="Path 44648" d="M574.64,167.831h2.983v20.606H587.5v2.5H574.64Z" fill="#fff"/>
        <path id="Path_44649" data-name="Path 44649" d="M602.79,180.1h-8.982v8.332h10.011v2.5H590.824V167.831H603.3v2.5h-9.5v7.3h8.982Z" fill="#fff"/>
        <path id="Path_44650" data-name="Path 44650" d="M623.844,190.185a14.807,14.807,0,0,1-6.1,1.1c-6.513,0-11.417-4.114-11.417-11.691,0-7.235,4.9-12.138,12.069-12.138a12.38,12.38,0,0,1,5.486,1.029l-.72,2.434a10.876,10.876,0,0,0-4.663-.96c-5.418,0-9.017,3.463-9.017,9.532,0,5.657,3.256,9.291,8.879,9.291a11.945,11.945,0,0,0,4.87-.96Z" fill="#fff"/>
        <path id="Path_44651" data-name="Path 44651" d="M632.931,170.368H625.9v-2.537h17.109v2.537h-7.063v20.571h-3.017Z" fill="#fff"/>
        <path id="Path_44652" data-name="Path 44652" d="M645.584,168.139a31.13,31.13,0,0,1,5.727-.48c3.188,0,5.245.583,6.685,1.885a5.755,5.755,0,0,1,1.817,4.389,6.067,6.067,0,0,1-4.354,5.9v.1c1.782.617,2.846,2.262,3.4,4.663a36.678,36.678,0,0,0,1.782,6.342H657.55a29.927,29.927,0,0,1-1.542-5.52c-.687-3.189-1.921-4.388-4.629-4.491h-2.812v10.011h-2.983Zm2.983,10.526h3.052c3.189,0,5.211-1.748,5.211-4.389,0-2.983-2.16-4.286-5.314-4.32a12.289,12.289,0,0,0-2.949.274Z" fill="#fff"/>
        <path id="Path_44653" data-name="Path 44653" d="M683.884,179.145c0,7.954-4.834,12.171-10.732,12.171-6.1,0-10.388-4.731-10.388-11.725,0-7.338,4.559-12.138,10.731-12.138C679.8,167.453,683.884,172.288,683.884,179.145Zm-17.932.377c0,4.937,2.675,9.36,7.372,9.36,4.732,0,7.405-4.354,7.405-9.6,0-4.594-2.4-9.394-7.371-9.394C668.421,169.888,665.952,174.448,665.952,179.522Z" fill="#fff"/>
        <path id="Path_44654" data-name="Path 44654" d="M687.761,190.939V167.831h3.258l7.405,11.691a65.224,65.224,0,0,1,4.149,7.509l.069-.034c-.275-3.086-.343-5.9-.343-9.5v-9.668h2.811v23.108h-3.017l-7.337-11.726a73.239,73.239,0,0,1-4.32-7.714l-.1.034c.171,2.915.239,5.692.239,9.532v9.874Z" fill="#fff"/>
        <path id="Path_44655" data-name="Path 44655" d="M713.306,167.831v23.108h-2.984V167.831Z" fill="#fff"/>
        <path id="Path_44656" data-name="Path 44656" d="M734.667,190.185a14.807,14.807,0,0,1-6.1,1.1c-6.513,0-11.417-4.114-11.417-11.691,0-7.235,4.9-12.138,12.069-12.138a12.376,12.376,0,0,1,5.486,1.029l-.72,2.434a10.873,10.873,0,0,0-4.663-.96c-5.418,0-9.017,3.463-9.017,9.532,0,5.657,3.257,9.291,8.88,9.291a11.94,11.94,0,0,0,4.869-.96Z" fill="#fff"/>
      </g>
      <g id="Group_6905" data-name="Group 6905">
        <path id="Path_44657" data-name="Path 44657" d="M613.446,216.789c-.217-4.083-.477-8.992-.434-12.642h-.13c-1,3.433-2.216,7.082-3.694,11.122l-5.168,14.205h-2.868l-4.735-13.945c-1.39-4.127-2.563-7.906-3.389-11.382h-.087c-.087,3.65-.3,8.559-.564,12.946l-.782,12.555h-3.606l2.042-29.28h4.823l4.995,14.162c1.216,3.606,2.215,6.821,2.954,9.862h.131c.738-2.954,1.781-6.169,3.084-9.862l5.212-14.162h4.823l1.824,29.28h-3.692Z" fill="#fff"/>
        <path id="Path_44658" data-name="Path 44658" d="M627.476,200.368V217.7c0,6.559,2.91,9.34,6.82,9.34,4.344,0,7.124-2.868,7.124-9.34V200.368h3.823v17.073c0,8.992-4.735,12.685-11.077,12.685-5.995,0-10.514-3.432-10.514-12.511V200.368Z" fill="#fff"/>
        <path id="Path_44659" data-name="Path 44659" d="M651.279,225.043a13.394,13.394,0,0,0,6.778,1.912c3.866,0,6.125-2.042,6.125-5,0-2.737-1.565-4.3-5.518-5.821-4.778-1.7-7.732-4.171-7.732-8.3,0-4.561,3.779-7.95,9.47-7.95a13.3,13.3,0,0,1,6.473,1.434l-1.043,3.084a11.661,11.661,0,0,0-5.561-1.39c-4,0-5.516,2.389-5.516,4.388,0,2.737,1.781,4.083,5.821,5.647,4.952,1.912,7.472,4.3,7.472,8.6,0,4.517-3.345,8.428-10.252,8.428a15.133,15.133,0,0,1-7.473-1.869Z" fill="#fff"/>
        <path id="Path_44660" data-name="Path 44660" d="M677,200.368v29.28h-3.779v-29.28Z" fill="#fff"/>
        <path id="Path_44661" data-name="Path 44661" d="M704.06,228.692a18.765,18.765,0,0,1-7.733,1.391c-8.254,0-14.467-5.214-14.467-14.814,0-9.166,6.213-15.379,15.292-15.379a15.7,15.7,0,0,1,6.951,1.3l-.913,3.085a13.761,13.761,0,0,0-5.908-1.216c-6.863,0-11.425,4.387-11.425,12.076,0,7.168,4.127,11.773,11.251,11.773a15.135,15.135,0,0,0,6.169-1.216Z" fill="#fff"/>
      </g>
    </g>
  </g>
</svg>
