<svg xmlns="http://www.w3.org/2000/svg" width="192.254" height="152.847" viewBox="0 0 192.254 152.847">
  <g id="jazz-music" transform="translate(-200.512 -546.582)">
    <g id="Group_6931" data-name="Group 6931">
      <path id="Path_44694" data-name="Path 44694" d="M275.948,613.746s-9.768,10.521-9.589,24.872,1.673,43.312.012,46.7a2.3,2.3,0,0,1-2.08,1.564h0v-.005c-.922-.047-1.885-.862-2.566-2.43-.013-.032-.025-.062-.039-.092-.064-.15-.124-.311-.182-.474-.007-.018-.014-.034-.02-.053-.064-.182-.121-.371-.175-.57-.014-.042-.023-.083-.036-.128-.041-.155-.081-.317-.118-.483-.013-.062-.027-.12-.038-.183-.039-.184-.076-.376-.107-.574-.006-.029-.012-.059-.016-.089-.036-.225-.066-.46-.092-.7-.008-.068-.015-.139-.022-.209-.017-.185-.033-.372-.045-.564-.006-.079-.01-.155-.014-.233-.015-.263-.025-.53-.028-.807-.007-.532-.022-1.273-.043-2.18l.453.439a1.412,1.412,0,0,0,.208.2l0,0h0a.837.837,0,0,0,.487.191.793.793,0,0,0,.409-.118.78.78,0,0,0,.4.134c.966.017,1.789-1.973,1.836-4.45s-.7-4.5-1.665-4.515a.773.773,0,0,0-.407.117.79.79,0,0,0-.4-.134.889.889,0,0,0-.589.248l-.939.763c-.035-1.207-.074-2.493-.118-3.837a.713.713,0,0,0,.308.078.723.723,0,0,1,.811.017c.966.018,1.788-1.973,1.836-4.449s-.7-4.5-1.664-4.518a.7.7,0,0,1-.811-.015.819.819,0,0,0-.495.173h0a.949.949,0,0,0-.087.072l-.165.134c-.027-.79-.052-1.589-.079-2.391a1.287,1.287,0,0,0,.2.192l0,.005h0a.737.737,0,0,0,.9.073.781.781,0,0,0,.4.134c.967.017,1.789-1.975,1.837-4.45s-.7-4.5-1.665-4.517a.7.7,0,0,1-.809-.016.821.821,0,0,0-.495.174h0l0,0c-.027.02-.054.042-.081.065l-.537.436c-.027-.838-.051-1.673-.078-2.5a.791.791,0,0,0,.414.143.778.778,0,0,0,.409-.12.758.758,0,0,0,.4.134c.967.019,1.79-1.972,1.838-4.449s-.7-4.5-1.665-4.517a.777.777,0,0,0-.408.119.793.793,0,0,0-.4-.134.816.816,0,0,0-.492.172h0c-.03.022-.06.048-.091.075l-.254.208c-.1-3.535-.191-6.734-.249-9.329l.59.528a1.429,1.429,0,0,0,.2.181h0a.832.832,0,0,0,.459.168.772.772,0,0,0,.387-.1.781.781,0,0,0,.381.119c.911.018,1.685-1.721,1.726-3.881s-.664-3.929-1.576-3.946a.724.724,0,0,1-.766-.013.788.788,0,0,0-.465.147h0l0,0c-.026.018-.052.039-.076.059l-.927.694c.006-.435,0-1.091-.009-1.933l.071.063a1.407,1.407,0,0,0,.194.174l0,0h0a.825.825,0,0,0,.461.168.811.811,0,0,0,.385-.1.748.748,0,0,0,.381.115c.912.02,1.686-1.72,1.727-3.88s-.664-3.927-1.577-3.945a.783.783,0,0,0-.385.1.772.772,0,0,0-.382-.117.794.794,0,0,0-.466.15h0l-.009.006c-.019.013-.036.028-.054.042l-.513.385c-.017-.6-.037-1.218-.055-1.857l.331.3a1.351,1.351,0,0,0,.193.175l0,0h0a.838.838,0,0,0,.461.168.8.8,0,0,0,.385-.1.787.787,0,0,0,.381.118c.912.017,1.684-1.722,1.726-3.881s-.664-3.928-1.576-3.947a.786.786,0,0,0-.385.1.736.736,0,0,0-.381-.118.822.822,0,0,0-.466.149h0l0,0c-.026.016-.049.036-.074.054l-.806.606q-.045-1.29-.092-2.634l.261.237a1.3,1.3,0,0,0,.2.177h0a.8.8,0,0,0,.459.168.726.726,0,0,1,.765.014c.914.019,1.686-1.721,1.728-3.881s-.663-3.929-1.576-3.945a.8.8,0,0,0-.386.1.764.764,0,0,0-.381-.117.818.818,0,0,0-.466.148h0l0,0-.075.055-.763.577c-.22-5.758-.464-11.756-.7-17.243a2.225,2.225,0,0,0,1.367-2.036,2.2,2.2,0,0,0-1.556-2.183c-.061-1.32-.121-2.6-.181-3.809a2.2,2.2,0,0,0,1.659-2.126,2.169,2.169,0,0,0-1.879-2.239c-.237-4.477-.442-7.568-.577-8.257a.3.3,0,0,0,0-.037l0-.009c-.008-.052-.027-.158-.055-.307l0,0a15.132,15.132,0,0,0-2.678-6.1l0-.007h0a8.561,8.561,0,0,0-3.231-2.594c-5-2.231-9.471-.438-15.772,2.942s-10.73,2.7-10.73,2.7l-1.324-.028-1.507-1.48-1.175,1.131-2.093-.041-1.514-1.183-1.578-.029-4.357-.084s-6.986,1.317-9.21,3.625c0,0,3.124,1.939,8.894,1.751l-.017.81,4.826.092,1.536.03,1.392-1.3,1.96.164,1.131,1.218,1.737-1.5L224,556.9l.005-.3a32.781,32.781,0,0,0,10.378-2.194c4.823-2.042,10.422-4.5,14.035-1.437a1.439,1.439,0,0,1,.191.2l.056.079c.042.057.083.119.124.185.022.035.042.071.063.107.039.071.077.15.115.229.019.038.036.073.054.115.053.117.1.241.152.375.008.023.015.044.024.065.044.127.089.259.13.4.019.059.036.119.053.182.031.1.061.212.09.326.02.069.036.14.055.214.029.115.056.236.084.356.015.074.033.146.049.222.035.169.071.344.1.526.015.075.028.152.042.229.029.162.058.325.085.492.017.1.031.2.047.295.022.135.041.271.061.413.016.1.031.213.045.322.021.145.041.292.059.441.014.107.028.21.04.318.027.217.053.437.076.662.013.105.025.213.036.322.021.2.042.4.061.6.012.108.02.22.033.332.015.182.033.366.048.552.01.111.019.22.028.333.019.216.036.437.053.66.006.076.012.152.017.228.023.316.045.633.066.957h0c.794,12.11.2,30.262.269,32.786.009.35.01,1,0,1.875l-1.006-.818-.06-.05,0,0h0a.681.681,0,0,0-.384-.139.642.642,0,0,0-.322.085.649.649,0,0,0-.319-.1c-.762-.015-1.409,1.438-1.443,3.246s.556,3.285,1.317,3.3a.64.64,0,0,0,.323-.085.648.648,0,0,0,.317.1.685.685,0,0,0,.39-.124h0a1.208,1.208,0,0,0,.175-.145l.962-.8c-.047,3.077-.117,6.96-.193,11.073l-.15-.123c-.018-.012-.035-.027-.054-.042l-.006,0v0a.6.6,0,0,0-.7-.055.641.641,0,0,0-.319-.1c-.763-.014-1.409,1.44-1.443,3.246s.554,3.285,1.317,3.3a.652.652,0,0,0,.323-.084.617.617,0,0,0,.318.1.668.668,0,0,0,.389-.123h0v0a1.106,1.106,0,0,0,.173-.141l.048-.043c-.169,9.489-.323,18.77-.249,21.235.156,5.21-.691,36-.358,40.812l-.01-.009c-.024-.018-.046-.037-.07-.054l0,0v0a.816.816,0,0,0-.459-.169.727.727,0,0,1-.767-.015c-.911-.017-1.686,1.722-1.727,3.882s.665,3.929,1.576,3.945a.722.722,0,0,1,.766.016.813.813,0,0,0,.468-.151h0a1.494,1.494,0,0,0,.2-.17l1.137-.945c1.33,4.369,4.215,9.072,10.553,10.365.1.021.208.043.314.063.175.032.354.062.534.09.161.023.327.044.494.064.145.018.287.035.434.05.328.03.663.057,1.007.069,12.377.5,15.921-10.627,16.005-14.98s.341-31.086,1.9-36.693,5.553-13.389,12.808-13.08C295.031,634.159,291.18,616.8,275.948,613.746Z" fill="#fff" stroke="#fff" stroke-width="1"/>
      <line id="Line_3" data-name="Line 3" x1="94.484" transform="translate(298.282 634.941)" fill="none" stroke="#fff" stroke-miterlimit="10" stroke-width="0.5"/>
    </g>
    <g id="Group_6938" data-name="Group 6938">
      <g id="Group_6934" data-name="Group 6934">
        <g id="Group_6932" data-name="Group 6932">
          <path id="Path_44695" data-name="Path 44695" d="M289.767,566.46h4.757v24.656c0,9.787-4.812,12.794-11.153,12.794a15.4,15.4,0,0,1-5.085-.875l.711-3.882a11.335,11.335,0,0,0,3.991.711c4.264,0,6.779-1.913,6.779-9.13Z" fill="#fff" stroke="#fff" stroke-width="1"/>
          <path id="Path_44696" data-name="Path 44696" d="M305.073,591.718l-3.827,11.591h-4.921l12.52-36.849h5.741l12.575,36.849h-5.085l-3.936-11.591ZM317.155,588l-3.608-10.606c-.82-2.406-1.367-4.592-1.914-6.725h-.109c-.546,2.187-1.148,4.429-1.858,6.67L306.057,588Z" fill="#fff" stroke="#fff" stroke-width="1"/>
          <path id="Path_44697" data-name="Path 44697" d="M326.719,600.521l20.448-29.907v-.164h-18.7v-3.99h24.876v2.9l-20.339,29.8v.164h20.612v3.992h-26.9Z" fill="#fff" stroke="#fff" stroke-width="1"/>
          <path id="Path_44698" data-name="Path 44698" d="M353.614,600.521l20.447-29.907v-.164h-18.7v-3.99h24.876v2.9l-20.338,29.8v.164h20.612v3.992h-26.9Z" fill="#fff" stroke="#fff" stroke-width="1"/>
        </g>
        <g id="Group_6933" data-name="Group 6933">
          <path id="Path_44699" data-name="Path 44699" d="M324.36,619.9c-.136-2.561-.3-5.641-.273-7.93h-.081c-.627,2.153-1.39,4.442-2.317,6.976l-3.243,8.911h-1.8l-2.97-8.748c-.872-2.588-1.608-4.959-2.126-7.139H311.5c-.055,2.289-.191,5.369-.354,8.121l-.491,7.876H308.39l1.281-18.368H312.7l3.134,8.884c.763,2.262,1.39,4.279,1.853,6.186h.082c.463-1.853,1.117-3.869,1.935-6.186l3.27-8.884h3.025l1.145,18.368h-2.317Z" fill="#fff" stroke="#fff" stroke-width="1"/>
          <path id="Path_44700" data-name="Path 44700" d="M333.163,609.6v10.874c0,4.115,1.826,5.859,4.278,5.859,2.726,0,4.47-1.8,4.47-5.859V609.6h2.4v10.71c0,5.641-2.971,7.958-6.949,7.958-3.761,0-6.595-2.154-6.595-7.849V609.6Z" fill="#fff" stroke="#fff" stroke-width="1"/>
          <path id="Path_44701" data-name="Path 44701" d="M348.1,625.078a8.4,8.4,0,0,0,4.252,1.2c2.425,0,3.842-1.281,3.842-3.133,0-1.717-.981-2.7-3.461-3.653-3-1.062-4.851-2.616-4.851-5.205,0-2.861,2.371-4.987,5.941-4.987a8.351,8.351,0,0,1,4.061.9l-.654,1.935a7.331,7.331,0,0,0-3.489-.872c-2.507,0-3.461,1.5-3.461,2.753,0,1.716,1.118,2.561,3.652,3.543,3.107,1.2,4.688,2.7,4.688,5.4,0,2.834-2.1,5.287-6.432,5.287a9.482,9.482,0,0,1-4.687-1.172Z" fill="#fff" stroke="#fff" stroke-width="1"/>
          <path id="Path_44702" data-name="Path 44702" d="M364.23,609.6v18.368h-2.37V609.6Z" fill="#fff" stroke="#fff" stroke-width="1"/>
          <path id="Path_44703" data-name="Path 44703" d="M381.208,627.367a11.75,11.75,0,0,1-4.85.872c-5.178,0-9.075-3.27-9.075-9.293,0-5.75,3.9-9.647,9.592-9.647a9.864,9.864,0,0,1,4.361.817l-.572,1.936a8.625,8.625,0,0,0-3.706-.764c-4.307,0-7.168,2.753-7.168,7.576,0,4.5,2.589,7.386,7.058,7.386a9.494,9.494,0,0,0,3.87-.763Z" fill="#fff" stroke="#fff" stroke-width="1"/>
        </g>
      </g>
      <g id="Group_6937" data-name="Group 6937">
        <g id="Group_6935" data-name="Group 6935">
          <path id="Path_44704" data-name="Path 44704" d="M302.956,645.066h2.451V662h8.117v2.058H302.956Z" fill="#fff" stroke="#fff" stroke-width="1"/>
          <path id="Path_44705" data-name="Path 44705" d="M331.392,654.366c0,6.539-3.975,10-8.822,10-5.016,0-8.539-3.889-8.539-9.638,0-6.031,3.748-9.977,8.821-9.977C328.038,644.756,331.392,648.729,331.392,654.366Zm-14.74.311c0,4.058,2.2,7.693,6.059,7.693,3.889,0,6.088-3.579,6.088-7.891,0-3.776-1.973-7.722-6.06-7.722C318.681,646.757,316.652,650.506,316.652,654.677Z" fill="#fff" stroke="#fff" stroke-width="1"/>
          <path id="Path_44706" data-name="Path 44706" d="M334.575,645.32a25.507,25.507,0,0,1,4.707-.4c2.62,0,4.312.479,5.495,1.551a4.729,4.729,0,0,1,1.494,3.607,4.989,4.989,0,0,1-3.579,4.848v.084c1.465.507,2.339,1.86,2.79,3.833a30.318,30.318,0,0,0,1.465,5.214h-2.536a24.584,24.584,0,0,1-1.268-4.538c-.564-2.621-1.579-3.607-3.8-3.692h-2.311v8.23h-2.452Zm2.452,8.652h2.508c2.621,0,4.284-1.437,4.284-3.608,0-2.451-1.776-3.522-4.368-3.551a10.115,10.115,0,0,0-2.424.226Z" fill="#fff" stroke="#fff" stroke-width="1"/>
          <path id="Path_44707" data-name="Path 44707" d="M359.572,655.155h-7.384V662h8.23v2.058H349.737v-19h10.258v2.058h-7.807v6h7.384Z" fill="#fff" stroke="#fff" stroke-width="1"/>
          <path id="Path_44708" data-name="Path 44708" d="M379.609,655.72c-.141-2.65-.31-5.834-.281-8.2h-.085c-.648,2.225-1.437,4.593-2.4,7.214l-3.353,9.216h-1.861l-3.071-9.047c-.9-2.677-1.663-5.13-2.2-7.383h-.056c-.057,2.367-.2,5.551-.367,8.4l-.507,8.145h-2.339l1.324-19h3.129l3.241,9.188c.789,2.339,1.438,4.425,1.917,6.4h.084c.479-1.916,1.155-4,2-6.4l3.382-9.188H381.3l1.184,19h-2.4Z" fill="#fff" stroke="#fff" stroke-width="1"/>
        </g>
        <g id="Group_6936" data-name="Group 6936">
          <path id="Path_44709" data-name="Path 44709" d="M305.044,670.886v23.468h-3.029V670.886Z" fill="#fff" stroke="#fff" stroke-width="1"/>
          <path id="Path_44710" data-name="Path 44710" d="M308.212,671.164a35.065,35.065,0,0,1,5.815-.453c2.994,0,5.188.7,6.581,1.95a6.31,6.31,0,0,1,2.054,4.91,6.908,6.908,0,0,1-1.81,5.014,9.726,9.726,0,0,1-7.173,2.577,10.432,10.432,0,0,1-2.438-.209v9.4h-3.029Zm3.029,11.316a10.107,10.107,0,0,0,2.507.245c3.656,0,5.885-1.777,5.885-5.015,0-3.1-2.194-4.6-5.536-4.6a12.81,12.81,0,0,0-2.856.243Z" fill="#fff" stroke="#fff" stroke-width="1"/>
          <path id="Path_44711" data-name="Path 44711" d="M324.192,690.663a10.733,10.733,0,0,0,5.432,1.532c3.1,0,4.91-1.636,4.91-4,0-2.194-1.254-3.447-4.423-4.666-3.83-1.358-6.2-3.342-6.2-6.65,0-3.656,3.03-6.373,7.591-6.373a10.67,10.67,0,0,1,5.188,1.149l-.835,2.473a9.345,9.345,0,0,0-4.457-1.114c-3.2,0-4.422,1.915-4.422,3.516,0,2.194,1.427,3.274,4.666,4.527,3.969,1.532,5.989,3.447,5.989,6.894,0,3.622-2.681,6.756-8.218,6.756a12.124,12.124,0,0,1-5.989-1.5Z" fill="#fff" stroke="#fff" stroke-width="1"/>
          <path id="Path_44712" data-name="Path 44712" d="M342.679,670.886v13.893c0,5.258,2.333,7.487,5.467,7.487,3.482,0,5.71-2.3,5.71-7.487V670.886h3.065V684.57c0,7.207-3.8,10.167-8.879,10.167-4.806,0-8.427-2.751-8.427-10.028V670.886Z" fill="#fff" stroke="#fff" stroke-width="1"/>
          <path id="Path_44713" data-name="Path 44713" d="M379.829,684.048c-.174-3.274-.383-7.208-.349-10.133h-.1c-.8,2.751-1.776,5.676-2.959,8.914l-4.145,11.386h-2.3l-3.8-11.177c-1.114-3.309-2.054-6.338-2.716-9.123h-.069c-.07,2.925-.244,6.859-.453,10.376l-.627,10.063h-2.89l1.637-23.468h3.865l4,11.351c.975,2.89,1.776,5.467,2.368,7.905h.1c.592-2.369,1.428-4.946,2.473-7.905l4.178-11.351h3.865l1.462,23.468h-2.959Z" fill="#fff" stroke="#fff" stroke-width="1"/>
        </g>
      </g>
    </g>
  </g>
</svg>
