<svg xmlns="http://www.w3.org/2000/svg" xmlns:xlink="http://www.w3.org/1999/xlink" width="592.113" height="638.586" viewBox="0 0 592.113 638.586">
  <defs>
    <linearGradient id="linear-gradient" x1="3.586" y1="-0.743" x2="-4.755" y2="2.616" gradientUnits="objectBoundingBox">
      <stop offset="0" stop-color="#14c285"/>
      <stop offset="1" stop-color="#14c285"/>
    </linearGradient>
    <filter id="Path_357">
      <feOffset dx="3" dy="3" input="SourceAlpha"/>
      <feGaussianBlur stdDeviation="3" result="blur"/>
      <feFlood flood-opacity="0.451" result="color"/>
      <feComposite operator="out" in="SourceGraphic" in2="blur"/>
      <feComposite operator="in" in="color"/>
      <feComposite operator="in" in2="SourceGraphic"/>
    </filter>
    <filter id="Path_358">
      <feOffset dx="3" dy="3" input="SourceAlpha"/>
      <feGaussianBlur stdDeviation="3" result="blur-2"/>
      <feFlood flood-opacity="0.451" result="color-2"/>
      <feComposite operator="out" in="SourceGraphic" in2="blur-2"/>
      <feComposite operator="in" in="color-2"/>
      <feComposite operator="in" in2="SourceGraphic"/>
    </filter>
    <filter id="Rectangle_24">
      <feOffset dx="3" dy="3" input="SourceAlpha"/>
      <feGaussianBlur stdDeviation="3" result="blur-3"/>
      <feFlood flood-opacity="0.451" result="color-3"/>
      <feComposite operator="out" in="SourceGraphic" in2="blur-3"/>
      <feComposite operator="in" in="color-3"/>
      <feComposite operator="in" in2="SourceGraphic"/>
    </filter>
    <filter id="Path_359">
      <feOffset dx="3" dy="3" input="SourceAlpha"/>
      <feGaussianBlur stdDeviation="3" result="blur-4"/>
      <feFlood flood-opacity="0.451" result="color-4"/>
      <feComposite operator="out" in="SourceGraphic" in2="blur-4"/>
      <feComposite operator="in" in="color-4"/>
      <feComposite operator="in" in2="SourceGraphic"/>
    </filter>
    <filter id="Ellipse_2">
      <feOffset dx="3" dy="3" input="SourceAlpha"/>
      <feGaussianBlur stdDeviation="3" result="blur-5"/>
      <feFlood flood-opacity="0.451" result="color-5"/>
      <feComposite operator="out" in="SourceGraphic" in2="blur-5"/>
      <feComposite operator="in" in="color-5"/>
      <feComposite operator="in" in2="SourceGraphic"/>
    </filter>
  </defs>
  <g id="logo" transform="translate(-323.413 -192.078)">
    <g data-type="innerShadowGroup">
      <path id="Path_357-2" data-name="Path 357" d="M784.824,595.744h0a27.321,27.321,0,0,1-27.32-27.319V454.315a27.32,27.32,0,0,1,27.32-27.32h0a27.32,27.32,0,0,1,27.321,27.321V568.424a27.321,27.321,0,0,1-27.32,27.32Z" fill="url(#linear-gradient)"/>
      <g transform="matrix(1, 0, 0, 1, 323.41, 192.08)" filter="url(#Path_357)">
        <path id="Path_357-3" data-name="Path 357" d="M784.824,595.744h0a27.321,27.321,0,0,1-27.32-27.319V454.315a27.32,27.32,0,0,1,27.32-27.32h0a27.32,27.32,0,0,1,27.321,27.321V568.424a27.321,27.321,0,0,1-27.32,27.32Z" transform="translate(-323.41 -192.08)" fill="#fff"/>
      </g>
    </g>
    <g data-type="innerShadowGroup">
      <path id="Path_358-2" data-name="Path 358" d="M465.369,644.752h0a27.32,27.32,0,0,0,27.32-27.32V405.307a27.319,27.319,0,0,0-27.321-27.32h0a27.32,27.32,0,0,0-27.32,27.32V617.432a27.321,27.321,0,0,0,27.319,27.32Z" fill="url(#linear-gradient)"/>
      <g transform="matrix(1, 0, 0, 1, 323.41, 192.08)" filter="url(#Path_358)">
        <path id="Path_358-3" data-name="Path 358" d="M465.369,644.752h0a27.32,27.32,0,0,0,27.32-27.32V405.307a27.319,27.319,0,0,0-27.321-27.32h0a27.32,27.32,0,0,0-27.32,27.32V617.432a27.321,27.321,0,0,0,27.319,27.32Z" transform="translate(-323.41 -192.08)" fill="#fff"/>
      </g>
    </g>
    <g data-type="innerShadowGroup">
      <rect id="Rectangle_24-2" data-name="Rectangle 24" width="54.64" height="113.498" rx="27.32" transform="translate(378.053 568.118) rotate(180)" fill="url(#linear-gradient)"/>
      <g transform="matrix(1, 0, 0, 1, 323.41, 192.08)" filter="url(#Rectangle_24)">
        <rect id="Rectangle_24-3" data-name="Rectangle 24" width="54.64" height="113.498" rx="27.32" transform="translate(54.64 376.04) rotate(180)" fill="#fff"/>
      </g>
    </g>
    <g id="Group_142" data-name="Group 142">
      <g data-type="innerShadowGroup">
        <path id="Path_359-2" data-name="Path 359" d="M675.607,284.592h-8.493a23.075,23.075,0,0,0-23.074,23.073v44.249a21.414,21.414,0,0,1-21.415,21.415h0a21.415,21.415,0,0,1-21.415-21.415v-131.9c0-14.913-11.691-27.542-26.6-27.926a27.32,27.32,0,0,0-28.042,27.31v583.33c0,14.912,11.691,27.542,26.6,27.926a27.321,27.321,0,0,0,28.041-27.311V670.824a21.415,21.415,0,0,1,21.414-21.414h0a21.414,21.414,0,0,1,21.414,21.414v44.249a23.074,23.074,0,0,0,23.073,23.073h8.494a23.074,23.074,0,0,0,23.074-23.073V307.666A23.074,23.074,0,0,0,675.607,284.592ZM647.281,583.6a18.946,18.946,0,0,1-18.945,18.945h0A18.945,18.945,0,0,1,609.39,583.6V432.459a18.945,18.945,0,0,1,18.945-18.945h0a18.946,18.946,0,0,1,18.946,18.946Z" fill="url(#linear-gradient)"/>
        <g transform="matrix(1, 0, 0, 1, 323.41, 192.08)" filter="url(#Path_359)">
          <path id="Path_359-3" data-name="Path 359" d="M675.607,284.592h-8.493a23.075,23.075,0,0,0-23.074,23.073v44.249a21.414,21.414,0,0,1-21.415,21.415h0a21.415,21.415,0,0,1-21.415-21.415v-131.9c0-14.913-11.691-27.542-26.6-27.926a27.32,27.32,0,0,0-28.042,27.31v583.33c0,14.912,11.691,27.542,26.6,27.926a27.321,27.321,0,0,0,28.041-27.311V670.824a21.415,21.415,0,0,1,21.414-21.414h0a21.414,21.414,0,0,1,21.414,21.414v44.249a23.074,23.074,0,0,0,23.073,23.073h8.494a23.074,23.074,0,0,0,23.074-23.073V307.666A23.074,23.074,0,0,0,675.607,284.592ZM647.281,583.6a18.946,18.946,0,0,1-18.945,18.945h0A18.945,18.945,0,0,1,609.39,583.6V432.459a18.945,18.945,0,0,1,18.945-18.945h0a18.946,18.946,0,0,1,18.946,18.946Z" transform="translate(-323.41 -192.08)" fill="#fff"/>
        </g>
      </g>
    </g>
    <g data-type="innerShadowGroup">
      <circle id="Ellipse_2-2" data-name="Ellipse 2" cx="25.595" cy="25.595" r="25.595" transform="translate(843.132 511.369) rotate(-45)" fill="url(#linear-gradient)"/>
      <g transform="matrix(1, 0, 0, 1, 323.41, 192.08)" filter="url(#Ellipse_2)">
        <circle id="Ellipse_2-3" data-name="Ellipse 2" cx="25.595" cy="25.595" r="25.595" transform="translate(519.72 319.29) rotate(-45)" fill="#fff"/>
      </g>
    </g>
  </g>
</svg>
