<svg xmlns="http://www.w3.org/2000/svg" width="205.265" height="130.099" viewBox="0 0 205.265 130.099">
  <g id="rock-roll" transform="translate(-182.334 -91.14)">
    <path id="Path_44637" data-name="Path 44637" d="M335.921,107.478c-10.739-18.652-38.182-16.236-38.182-16.236s-27.443-2.416-38.181,16.236c-4.75,8.251-3.194,21.906,2.39,34.9,3.225-3.7,8.109-4.325,13.683-5.106,4.9-.686,5.213-3.975,8.975-8.718s9.062-3.681,11.66-1.156l.03.029c.043.038.085.076.125.116s.091.1.137.148c.031.033.059.066.088.1.1.111.2.224.293.342a4.549,4.549,0,0,1,.286.4c.017.026.034.054.049.081.034.057.072.111.1.167l-.015-.009a6.6,6.6,0,0,1,.614,1.489L316.3,113.137a9.268,9.268,0,0,0,1.4-2.745c.361-1.394,1.47-1.733,2.585-2.889.239-.248.607-.66,1.043-1.153l-.413-.389a.9.9,0,1,1,.473-.775.86.86,0,0,1-.089.367l.4.375c.552-.623,1.176-1.33,1.783-1.989l-.42-.4a.9.9,0,1,1,.474-.772.864.864,0,0,1-.087.365l.415.39a7.946,7.946,0,0,1,2.241-1.958.586.586,0,0,1,.209.007.315.315,0,0,1,.052.009.87.87,0,0,1,.185.069l.015.007a1.331,1.331,0,0,1,.2.137l.039.035a1.868,1.868,0,0,1,.174.18l.01.012a2.373,2.373,0,0,1,.183.25.3.3,0,0,1,.019.03,3.17,3.17,0,0,1,.168.282l0,.006c.056.107.112.219.165.338l0,.006c.052.117.1.235.146.359l0,.005a9.494,9.494,0,0,1,.346,1.151,7.471,7.471,0,0,0,1.76,2.791c.05.057.1.111.147.164.015.016.031.033.044.05.037.036.071.074.1.108l.011.011c.074.082.142.154.2.217l.015.016.077.085a.293.293,0,0,0,.024.026c.025.03.048.054.064.074.122.149-.529.758-1.4,1.507l.387.431a.9.9,0,0,1,.457-.079.908.908,0,1,1-.993.811.922.922,0,0,1,.117-.358l-.392-.434.193-.172c-.7.588-1.489,1.241-2.147,1.816l.247.275a.9.9,0,1,1-.534.733.958.958,0,0,1,.114-.359l-.247-.274c-.272.249-.5.476-.667.661a14.185,14.185,0,0,1-2.669,2.685,7.688,7.688,0,0,0-3.418,1.342l-.006-.007L298.284,138c.3,3.988,3.808,4.673,5.345,5.727l.043.032c.054.038.106.075.154.115.02.016.038.034.056.049.04.035.077.069.114.106.019.018.035.038.053.058s.06.069.086.1.032.046.046.067.043.072.061.109.023.048.032.072a.832.832,0,0,1,.037.12.588.588,0,0,1,.018.075.8.8,0,0,1,.012.138c0,.024,0,.048,0,.072a1.362,1.362,0,0,1-.03.227c-.545,2.381-4.567,3.106-6.843,3.845s-4.076,1.945-4.012,6.719c0,.141,0,.287,0,.435,0,.049,0,.1,0,.147,0,.1-.005.2-.009.307,0,.061-.005.122-.008.184,0,.1-.007.191-.013.287,0,.066-.008.135-.01.205-.008.094-.017.19-.023.287-.006.071-.011.141-.016.21-.011.108-.022.216-.032.324-.016.131-.031.263-.047.394l-.033.264c-.012.1-.028.195-.043.293-.011.074-.022.145-.034.22-.016.1-.034.211-.054.317-.012.065-.023.13-.035.2-.021.114-.044.228-.068.343-.01.051-.021.1-.031.153q-.192.907-.481,1.831c-.006.021-.014.044-.022.065-.046.149-.1.3-.148.445-.008.023-.015.046-.025.069a13.334,13.334,0,0,1-5.748,7.3l-.018.011h0a12.877,12.877,0,0,1-2.2,1,32.55,32.55,0,0,0,13.373,5.3C325.182,172.415,346.659,126.131,335.921,107.478Z" fill="#fff"/>
    <g id="Group_6894" data-name="Group 6894">
      <g id="Group_6892" data-name="Group 6892">
        <path id="Path_44638" data-name="Path 44638" d="M313.941,197.267a32.146,32.146,0,0,1,5.922-.5c3.3,0,5.426.6,6.915,1.95a5.952,5.952,0,0,1,1.88,4.539,6.275,6.275,0,0,1-4.5,6.1v.106c1.844.639,2.943,2.341,3.511,4.823a37.968,37.968,0,0,0,1.844,6.561h-3.192a30.944,30.944,0,0,1-1.6-5.71c-.71-3.3-1.987-4.539-4.788-4.645h-2.908v10.355h-3.085Zm3.085,10.886h3.157c3.3,0,5.389-1.808,5.389-4.539,0-3.085-2.234-4.432-5.5-4.468a12.682,12.682,0,0,0-3.05.284Z" fill="#fff"/>
        <path id="Path_44639" data-name="Path 44639" d="M353.553,208.65c0,8.227-5,12.589-11.1,12.589-6.312,0-10.745-4.894-10.745-12.128,0-7.589,4.717-12.553,11.1-12.553C349.333,196.558,353.553,201.558,353.553,208.65Zm-18.547.39c0,5.106,2.766,9.681,7.624,9.681,4.894,0,7.66-4.5,7.66-9.929,0-4.752-2.482-9.717-7.624-9.717C337.56,199.075,335.006,203.792,335.006,209.04Z" fill="#fff"/>
        <path id="Path_44640" data-name="Path 44640" d="M357.562,196.948h3.085V218.26H370.86v2.589h-13.3Z" fill="#fff"/>
        <path id="Path_44641" data-name="Path 44641" d="M374.3,196.948h3.085V218.26H387.6v2.589H374.3Z" fill="#fff"/>
      </g>
      <g id="Group_6893" data-name="Group 6893">
        <path id="Path_44642" data-name="Path 44642" d="M182.334,195.139a34.849,34.849,0,0,1,6.421-.538c3.577,0,5.884.653,7.5,2.115a6.456,6.456,0,0,1,2.038,4.922,6.8,6.8,0,0,1-4.884,6.613v.116c2,.692,3.192,2.538,3.807,5.229a41.3,41.3,0,0,0,2,7.114h-3.46a33.6,33.6,0,0,1-1.731-6.191c-.769-3.576-2.153-4.922-5.19-5.037h-3.154V220.71h-3.345Zm3.345,11.8H189.1c3.576,0,5.844-1.961,5.844-4.922,0-3.345-2.422-4.806-5.96-4.845a13.752,13.752,0,0,0-3.307.308Z" fill="#fff"/>
        <path id="Path_44643" data-name="Path 44643" d="M225.285,207.482c0,8.921-5.422,13.651-12.036,13.651-6.844,0-11.651-5.306-11.651-13.151,0-8.229,5.114-13.612,12.036-13.612C220.709,194.37,225.285,199.792,225.285,207.482Zm-20.111.423c0,5.537,3,10.5,8.267,10.5,5.307,0,8.306-4.883,8.306-10.767,0-5.152-2.691-10.536-8.267-10.536C207.943,197.1,205.174,202.214,205.174,207.9Z" fill="#fff"/>
        <path id="Path_44644" data-name="Path 44644" d="M247.741,219.864a16.617,16.617,0,0,1-6.845,1.23c-7.306,0-12.8-4.614-12.8-13.112,0-8.113,5.5-13.612,13.535-13.612a13.893,13.893,0,0,1,6.152,1.154l-.807,2.73a12.189,12.189,0,0,0-5.23-1.077c-6.075,0-10.113,3.884-10.113,10.69,0,6.344,3.653,10.421,9.959,10.421a13.39,13.39,0,0,0,5.461-1.077Z" fill="#fff"/>
        <path id="Path_44645" data-name="Path 44645" d="M251.932,194.793h3.345v12.5h.116c.692-1,1.384-1.922,2.038-2.769l7.921-9.728h4.153l-9.382,11,10.112,14.919h-3.96l-8.537-12.728-2.461,2.846v9.882h-3.345Z" fill="#fff"/>
        <path id="Path_44646" data-name="Path 44646" d="M297.151,220.71c-.731-.731-1.422-1.461-2.422-2.538a10.619,10.619,0,0,1-7.576,2.961c-5.037,0-7.959-3.384-7.959-7.267,0-3.538,2.115-5.961,5.076-7.575v-.116a8.9,8.9,0,0,1-2.154-5.422,6.287,6.287,0,0,1,6.575-6.383,5.392,5.392,0,0,1,5.73,5.5c0,2.73-1.576,4.883-5.691,6.922v.115c2.192,2.537,4.653,5.383,6.306,7.229a18.99,18.99,0,0,0,2.5-7.575h3.076c-.692,4.075-1.807,7.306-3.73,9.574,1.384,1.461,2.73,2.923,4.268,4.576Zm-4.076-4.46c-1.538-1.692-4.422-4.845-7.305-8.152a6.366,6.366,0,0,0-3.346,5.268,5.112,5.112,0,0,0,5.306,5.229A7.244,7.244,0,0,0,293.075,216.25Zm-7.883-15.8a7.271,7.271,0,0,0,1.961,4.652c2.616-1.5,4.307-2.884,4.307-5.075,0-1.577-.884-3.346-3-3.346C286.308,196.677,285.192,198.446,285.192,200.446Z" fill="#fff"/>
      </g>
    </g>
  </g>
</svg>
